<?xml version="1.0" encoding="UTF-8"?>
<svg xmlns="http://www.w3.org/2000/svg" xmlns:xlink="http://www.w3.org/1999/xlink" width="3840" height="2160" viewBox="0 0 3840 2160">
<defs>
<clipPath id="clip-0">

</clipPath>
<clipPath id="clip-1">
<path clip-rule="nonzero" d="M 1051.308594 1050.019531 C 1051.308594 1527.558594 1438.429688 1914.679688 1915.96875 1914.679688 C 2393.511719 1914.679688 2780.640625 1527.558594 2780.640625 1050.019531 C 2780.640625 572.480469 2393.511719 185.351562 1915.96875 185.351562 C 1438.429688 185.351562 1051.308594 572.480469 1051.308594 1050.019531 Z M 1051.308594 1050.019531 "/>
</clipPath>
<clipPath id="clip-2">
<path clip-rule="nonzero" d="M 1051.308594 1050.019531 C 1051.308594 1527.558594 1438.429688 1914.679688 1915.96875 1914.679688 C 2393.511719 1914.679688 2780.640625 1527.558594 2780.640625 1050.019531 C 2780.640625 572.480469 2393.511719 185.351562 1915.96875 185.351562 C 1438.429688 185.351562 1051.308594 572.480469 1051.308594 1050.019531 "/>
</clipPath>
<linearGradient id="linear-pattern-0" gradientUnits="userSpaceOnUse" x1="-0.207107" y1="0" x2="1.207107" y2="0" gradientTransform="matrix(-1222.82, -1222.82, -1222.82, 1222.82, 2527.38, 1661.43)">
<stop offset="0" stop-color="rgb(13.725281%, 12.156677%, 12.548828%)" stop-opacity="1"/>
<stop offset="0.25" stop-color="rgb(13.725281%, 12.156677%, 12.548828%)" stop-opacity="1"/>
<stop offset="0.3125" stop-color="rgb(13.725281%, 12.156677%, 12.548828%)" stop-opacity="1"/>
<stop offset="0.34375" stop-color="rgb(13.763428%, 12.19635%, 12.588501%)" stop-opacity="1"/>
<stop offset="0.359375" stop-color="rgb(13.934326%, 12.376404%, 12.771606%)" stop-opacity="1"/>
<stop offset="0.367188" stop-color="rgb(14.189148%, 12.641907%, 13.041687%)" stop-opacity="1"/>
<stop offset="0.375" stop-color="rgb(14.479065%, 12.945557%, 13.348389%)" stop-opacity="1"/>
<stop offset="0.378906" stop-color="rgb(14.868164%, 13.35144%, 13.760376%)" stop-opacity="1"/>
<stop offset="0.382812" stop-color="rgb(15.089417%, 13.583374%, 13.995361%)" stop-opacity="1"/>
<stop offset="0.386719" stop-color="rgb(15.370178%, 13.877869%, 14.294434%)" stop-opacity="1"/>
<stop offset="0.390625" stop-color="rgb(15.652466%, 14.172363%, 14.593506%)" stop-opacity="1"/>
<stop offset="0.394531" stop-color="rgb(16.001892%, 14.537048%, 14.964294%)" stop-opacity="1"/>
<stop offset="0.398438" stop-color="rgb(16.351318%, 14.901733%, 15.335083%)" stop-opacity="1"/>
<stop offset="0.402344" stop-color="rgb(16.773987%, 15.345764%, 15.783691%)" stop-opacity="1"/>
<stop offset="0.40625" stop-color="rgb(17.198181%, 15.789795%, 16.233826%)" stop-opacity="1"/>
<stop offset="0.410156" stop-color="rgb(17.703247%, 16.317749%, 16.770935%)" stop-opacity="1"/>
<stop offset="0.414062" stop-color="rgb(18.209839%, 16.847229%, 17.308044%)" stop-opacity="1"/>
<stop offset="0.417969" stop-color="rgb(18.804932%, 17.468262%, 17.938232%)" stop-opacity="1"/>
<stop offset="0.421875" stop-color="rgb(19.400024%, 18.09082%, 18.569946%)" stop-opacity="1"/>
<stop offset="0.425781" stop-color="rgb(20.089722%, 18.812561%, 19.302368%)" stop-opacity="1"/>
<stop offset="0.429688" stop-color="rgb(20.779419%, 19.534302%, 20.03479%)" stop-opacity="1"/>
<stop offset="0.433594" stop-color="rgb(21.57135%, 20.362854%, 20.875549%)" stop-opacity="1"/>
<stop offset="0.4375" stop-color="rgb(22.364807%, 21.192932%, 21.716309%)" stop-opacity="1"/>
<stop offset="0.441406" stop-color="rgb(23.266602%, 22.135925%, 22.673035%)" stop-opacity="1"/>
<stop offset="0.445312" stop-color="rgb(24.169922%, 23.078918%, 23.631287%)" stop-opacity="1"/>
<stop offset="0.449219" stop-color="rgb(25.187683%, 24.143982%, 24.711609%)" stop-opacity="1"/>
<stop offset="0.453125" stop-color="rgb(26.20697%, 25.210571%, 25.793457%)" stop-opacity="1"/>
<stop offset="0.457031" stop-color="rgb(27.348328%, 26.403809%, 27.005005%)" stop-opacity="1"/>
<stop offset="0.460938" stop-color="rgb(28.491211%, 27.598572%, 28.216553%)" stop-opacity="1"/>
<stop offset="0.464844" stop-color="rgb(29.762268%, 28.927612%, 29.56543%)" stop-opacity="1"/>
<stop offset="0.46875" stop-color="rgb(31.034851%, 30.258179%, 30.914307%)" stop-opacity="1"/>
<stop offset="0.472656" stop-color="rgb(32.443237%, 31.730652%, 32.408142%)" stop-opacity="1"/>
<stop offset="0.476562" stop-color="rgb(33.851624%, 33.204651%, 33.903503%)" stop-opacity="1"/>
<stop offset="0.480469" stop-color="rgb(35.403442%, 34.828186%, 35.549927%)" stop-opacity="1"/>
<stop offset="0.484375" stop-color="rgb(36.955261%, 36.451721%, 37.197876%)" stop-opacity="1"/>
<stop offset="0.488281" stop-color="rgb(38.658142%, 38.230896%, 39.004517%)" stop-opacity="1"/>
<stop offset="0.492188" stop-color="rgb(40.361023%, 40.011597%, 40.811157%)" stop-opacity="1"/>
<stop offset="0.496094" stop-color="rgb(42.219543%, 41.955566%, 42.784119%)" stop-opacity="1"/>
<stop offset="0.5" stop-color="rgb(44.07959%, 43.901062%, 44.75708%)" stop-opacity="1"/>
<stop offset="0.503906" stop-color="rgb(46.102905%, 46.017456%, 46.903992%)" stop-opacity="1"/>
<stop offset="0.507812" stop-color="rgb(48.126221%, 48.13385%, 49.050903%)" stop-opacity="1"/>
<stop offset="0.511719" stop-color="rgb(50.318909%, 50.427246%, 51.377869%)" stop-opacity="1"/>
<stop offset="0.515625" stop-color="rgb(52.513123%, 52.722168%, 53.70636%)" stop-opacity="1"/>
<stop offset="0.519531" stop-color="rgb(54.884338%, 55.201721%, 56.221008%)" stop-opacity="1"/>
<stop offset="0.523438" stop-color="rgb(57.255554%, 57.681274%, 58.737183%)" stop-opacity="1"/>
<stop offset="0.527344" stop-color="rgb(59.809875%, 60.353088%, 61.447144%)" stop-opacity="1"/>
<stop offset="0.53125" stop-color="rgb(62.365723%, 63.024902%, 64.15863%)" stop-opacity="1"/>
<stop offset="0.535156" stop-color="rgb(62.042236%, 62.686157%, 63.815308%)" stop-opacity="1"/>
<stop offset="0.539062" stop-color="rgb(61.71875%, 62.348938%, 63.473511%)" stop-opacity="1"/>
<stop offset="0.542969" stop-color="rgb(58.529663%, 59.014893%, 60.090637%)" stop-opacity="1"/>
<stop offset="0.546875" stop-color="rgb(55.342102%, 55.680847%, 56.707764%)" stop-opacity="1"/>
<stop offset="0.550781" stop-color="rgb(52.455139%, 52.661133%, 53.643799%)" stop-opacity="1"/>
<stop offset="0.554688" stop-color="rgb(49.568176%, 49.641418%, 50.579834%)" stop-opacity="1"/>
<stop offset="0.558594" stop-color="rgb(46.965027%, 46.91925%, 47.817993%)" stop-opacity="1"/>
<stop offset="0.5625" stop-color="rgb(44.363403%, 44.198608%, 45.057678%)" stop-opacity="1"/>
<stop offset="0.566406" stop-color="rgb(42.030334%, 41.758728%, 42.582703%)" stop-opacity="1"/>
<stop offset="0.570312" stop-color="rgb(39.697266%, 39.318848%, 40.107727%)" stop-opacity="1"/>
<stop offset="0.574219" stop-color="rgb(37.617493%, 37.14447%, 37.901306%)" stop-opacity="1"/>
<stop offset="0.578125" stop-color="rgb(35.539246%, 34.970093%, 35.694885%)" stop-opacity="1"/>
<stop offset="0.582031" stop-color="rgb(33.699036%, 33.044434%, 33.74176%)" stop-opacity="1"/>
<stop offset="0.585938" stop-color="rgb(31.858826%, 31.1203%, 31.790161%)" stop-opacity="1"/>
<stop offset="0.589844" stop-color="rgb(30.241394%, 29.429626%, 30.073547%)" stop-opacity="1"/>
<stop offset="0.59375" stop-color="rgb(28.623962%, 27.738953%, 28.358459%)" stop-opacity="1"/>
<stop offset="0.597656" stop-color="rgb(27.215576%, 26.264954%, 26.863098%)" stop-opacity="1"/>
<stop offset="0.601562" stop-color="rgb(25.80719%, 24.790955%, 25.367737%)" stop-opacity="1"/>
<stop offset="0.605469" stop-color="rgb(24.591064%, 23.518372%, 24.076843%)" stop-opacity="1"/>
<stop offset="0.609375" stop-color="rgb(23.374939%, 22.247314%, 22.787476%)" stop-opacity="1"/>
<stop offset="0.613281" stop-color="rgb(22.335815%, 21.160889%, 21.685791%)" stop-opacity="1"/>
<stop offset="0.617188" stop-color="rgb(21.298218%, 20.075989%, 20.584106%)" stop-opacity="1"/>
<stop offset="0.621094" stop-color="rgb(20.422363%, 19.160461%, 19.654846%)" stop-opacity="1"/>
<stop offset="0.625" stop-color="rgb(19.548035%, 18.24646%, 18.727112%)" stop-opacity="1"/>
<stop offset="0.628906" stop-color="rgb(18.821716%, 17.486572%, 17.956543%)" stop-opacity="1"/>
<stop offset="0.632812" stop-color="rgb(18.095398%, 16.72821%, 17.185974%)" stop-opacity="1"/>
<stop offset="0.636719" stop-color="rgb(17.503357%, 16.108704%, 16.557312%)" stop-opacity="1"/>
<stop offset="0.640625" stop-color="rgb(16.911316%, 15.489197%, 15.930176%)" stop-opacity="1"/>
<stop offset="0.644531" stop-color="rgb(16.438293%, 14.994812%, 15.428162%)" stop-opacity="1"/>
<stop offset="0.648438" stop-color="rgb(15.966797%, 14.500427%, 14.927673%)" stop-opacity="1"/>
<stop offset="0.652344" stop-color="rgb(15.59906%, 14.115906%, 14.538574%)" stop-opacity="1"/>
<stop offset="0.65625" stop-color="rgb(15.232849%, 13.73291%, 14.149475%)" stop-opacity="1"/>
<stop offset="0.660156" stop-color="rgb(14.956665%, 13.444519%, 13.856506%)" stop-opacity="1"/>
<stop offset="0.664062" stop-color="rgb(14.682007%, 13.157654%, 13.565063%)" stop-opacity="1"/>
<stop offset="0.667969" stop-color="rgb(14.483643%, 12.950134%, 13.354492%)" stop-opacity="1"/>
<stop offset="0.671875" stop-color="rgb(14.286804%, 12.744141%, 13.145447%)" stop-opacity="1"/>
<stop offset="0.679688" stop-color="rgb(14.154053%, 12.605286%, 13.00354%)" stop-opacity="1"/>
<stop offset="0.6875" stop-color="rgb(13.938904%, 12.379456%, 12.774658%)" stop-opacity="1"/>
<stop offset="0.75" stop-color="rgb(13.790894%, 12.225342%, 12.617493%)" stop-opacity="1"/>
<stop offset="1" stop-color="rgb(13.725281%, 12.156677%, 12.548828%)" stop-opacity="1"/>
</linearGradient>
</defs>

<path fill-rule="nonzero" fill="rgb(65.039062%, 65.818787%, 66.992188%)" fill-opacity="1" d="M 2673.628906 2020.839844 C 2673.628906 2041.339844 2334.210938 2057.96875 1915.519531 2057.96875 C 1496.820312 2057.96875 1157.398438 2041.339844 1157.398438 2020.839844 C 1157.398438 2000.339844 1496.820312 1983.71875 1915.519531 1983.71875 C 2334.210938 1983.71875 2673.628906 2000.339844 2673.628906 2020.839844 "/>
<g clip-path="url(#clip-0)">
<g clip-path="url(#clip-1)">
<g clip-path="url(#clip-2)">
<path fill-rule="nonzero" fill="url(#linear-pattern-0)" d="M 3645.304688 1050.015625 L 1915.976562 2779.34375 L 186.644531 1050.015625 L 1915.976562 -679.316406 Z M 3645.304688 1050.015625 "/>
</g>
</g>
</g>
<path fill="none" stroke-width="10" stroke-linecap="butt" stroke-linejoin="miter" stroke="rgb(13.719177%, 12.156677%, 12.547302%)" stroke-opacity="1" stroke-miterlimit="10" d="M 10893.59375 11099.804688 C 10893.59375 6534.609375 14594.492188 2833.789062 19159.6875 2833.789062 C 23725 2833.789062 27425.78125 6534.609375 27425.78125 11099.804688 C 27425.78125 15665.117188 23725 19365.898438 19159.6875 19365.898438 C 14594.492188 19365.898438 10893.59375 15665.117188 10893.59375 11099.804688 Z M 10893.59375 11099.804688 " transform="matrix(0.1, 0, 0, -0.1, 0, 2160)"/>
<path fill="none" stroke-width="10" stroke-linecap="butt" stroke-linejoin="miter" stroke="rgb(13.719177%, 12.156677%, 12.547302%)" stroke-opacity="1" stroke-miterlimit="10" d="M 11197.5 11099.804688 C 11197.5 6702.382812 14762.304688 3137.617188 19159.6875 3137.617188 C 23557.109375 3137.617188 27121.992188 6702.382812 27121.992188 11099.804688 C 27121.992188 15497.304688 23557.109375 19062.109375 19159.6875 19062.109375 C 14762.304688 19062.109375 11197.5 15497.304688 11197.5 11099.804688 Z M 11197.5 11099.804688 " transform="matrix(0.1, 0, 0, -0.1, 0, 2160)"/>
<path fill="none" stroke-width="10" stroke-linecap="butt" stroke-linejoin="miter" stroke="rgb(13.719177%, 12.156677%, 12.547302%)" stroke-opacity="1" stroke-miterlimit="10" d="M 11501.40625 11099.804688 C 11501.40625 6870.195312 14930.117188 3441.484375 19159.6875 3441.484375 C 23389.296875 3441.484375 26818.085938 6870.195312 26818.085938 11099.804688 C 26818.085938 15329.414062 23389.296875 18758.203125 19159.6875 18758.203125 C 14930.117188 18758.203125 11501.40625 15329.414062 11501.40625 11099.804688 Z M 11501.40625 11099.804688 " transform="matrix(0.1, 0, 0, -0.1, 0, 2160)"/>
<path fill="none" stroke-width="10" stroke-linecap="butt" stroke-linejoin="miter" stroke="rgb(13.719177%, 12.156677%, 12.547302%)" stroke-opacity="1" stroke-miterlimit="10" d="M 11805.195312 11099.804688 C 11805.195312 7038.085938 15097.890625 3745.3125 19159.6875 3745.3125 C 23221.484375 3745.3125 26514.21875 7038.007812 26514.21875 11099.804688 C 26514.21875 15161.601562 23221.484375 18454.296875 19159.6875 18454.296875 C 15097.890625 18454.414062 11805.195312 15161.601562 11805.195312 11099.804688 Z M 11805.195312 11099.804688 " transform="matrix(0.1, 0, 0, -0.1, 0, 2160)"/>
<path fill="none" stroke-width="10" stroke-linecap="butt" stroke-linejoin="miter" stroke="rgb(13.719177%, 12.156677%, 12.547302%)" stroke-opacity="1" stroke-miterlimit="10" d="M 12109.101562 11099.804688 C 12109.101562 7205.898438 15265.78125 4049.21875 19159.6875 4049.21875 C 23053.710938 4049.21875 26210.390625 7205.898438 26210.390625 11099.804688 C 26210.390625 14993.789062 23053.710938 18150.507812 19159.6875 18150.507812 C 15265.78125 18150.507812 12109.101562 14993.789062 12109.101562 11099.804688 Z M 12109.101562 11099.804688 " transform="matrix(0.1, 0, 0, -0.1, 0, 2160)"/>
<path fill="none" stroke-width="10" stroke-linecap="butt" stroke-linejoin="miter" stroke="rgb(13.719177%, 12.156677%, 12.547302%)" stroke-opacity="1" stroke-miterlimit="10" d="M 12412.890625 11099.804688 C 12412.890625 7373.710938 15433.59375 4353.007812 19159.6875 4353.007812 C 22885.898438 4353.007812 25906.484375 7373.710938 25906.484375 11099.804688 C 25906.484375 14826.015625 22885.898438 17846.601562 19159.6875 17846.601562 C 15433.59375 17846.601562 12412.890625 14826.015625 12412.890625 11099.804688 Z M 12412.890625 11099.804688 " transform="matrix(0.1, 0, 0, -0.1, 0, 2160)"/>
<path fill="none" stroke-width="10" stroke-linecap="butt" stroke-linejoin="miter" stroke="rgb(13.719177%, 12.156677%, 12.547302%)" stroke-opacity="1" stroke-miterlimit="10" d="M 12716.796875 11099.804688 C 12716.796875 7541.484375 15601.40625 4656.914062 19159.6875 4656.914062 C 22718.085938 4656.914062 25602.695312 7541.484375 25602.695312 11099.804688 C 25602.695312 14658.203125 22718.085938 17542.8125 19159.6875 17542.8125 C 15601.40625 17542.8125 12716.796875 14658.203125 12716.796875 11099.804688 Z M 12716.796875 11099.804688 " transform="matrix(0.1, 0, 0, -0.1, 0, 2160)"/>
<path fill="none" stroke-width="10" stroke-linecap="butt" stroke-linejoin="miter" stroke="rgb(13.719177%, 12.156677%, 12.547302%)" stroke-opacity="1" stroke-miterlimit="10" d="M 13020.585938 11099.804688 C 13020.585938 7709.296875 15769.21875 4960.78125 19159.6875 4960.78125 C 22550.195312 4960.78125 25298.789062 7709.296875 25298.789062 11099.804688 C 25298.789062 14490.390625 22550.195312 17238.90625 19159.6875 17238.90625 C 15769.21875 17238.90625 13020.585938 14490.390625 13020.585938 11099.804688 Z M 13020.585938 11099.804688 " transform="matrix(0.1, 0, 0, -0.1, 0, 2160)"/>
<path fill="none" stroke-width="10" stroke-linecap="butt" stroke-linejoin="miter" stroke="rgb(13.719177%, 12.156677%, 12.547302%)" stroke-opacity="1" stroke-miterlimit="10" d="M 13324.492188 11099.804688 C 13324.492188 7877.109375 15936.992188 5264.609375 19159.6875 5264.609375 C 22382.382812 5264.609375 24994.882812 7877.109375 24994.882812 11099.804688 C 24994.882812 14322.5 22382.382812 16935.117188 19159.6875 16935.117188 C 15936.992188 16935.117188 13324.492188 14322.5 13324.492188 11099.804688 Z M 13324.492188 11099.804688 " transform="matrix(0.1, 0, 0, -0.1, 0, 2160)"/>
<path fill="none" stroke-width="10" stroke-linecap="butt" stroke-linejoin="miter" stroke="rgb(13.719177%, 12.156677%, 12.547302%)" stroke-opacity="1" stroke-miterlimit="10" d="M 13628.398438 11099.804688 C 13628.398438 8044.882812 16104.804688 5568.515625 19159.6875 5568.515625 C 22214.609375 5568.515625 24691.09375 8044.882812 24691.09375 11099.804688 C 24691.09375 14154.6875 22214.609375 16631.210938 19159.6875 16631.210938 C 16104.804688 16631.210938 13628.398438 14154.6875 13628.398438 11099.804688 Z M 13628.398438 11099.804688 " transform="matrix(0.1, 0, 0, -0.1, 0, 2160)"/>
<path fill="none" stroke-width="10" stroke-linecap="butt" stroke-linejoin="miter" stroke="rgb(13.719177%, 12.156677%, 12.547302%)" stroke-opacity="1" stroke-miterlimit="10" d="M 13932.1875 11099.804688 C 13932.1875 8212.8125 16272.695312 5872.304688 19159.6875 5872.304688 C 22046.796875 5872.304688 24387.1875 8212.8125 24387.1875 11099.804688 C 24387.1875 13986.914062 22046.796875 16327.304688 19159.6875 16327.304688 C 16272.695312 16327.304688 13932.1875 13986.914062 13932.1875 11099.804688 Z M 13932.1875 11099.804688 " transform="matrix(0.1, 0, 0, -0.1, 0, 2160)"/>
<path fill="none" stroke-width="10" stroke-linecap="butt" stroke-linejoin="miter" stroke="rgb(13.719177%, 12.156677%, 12.547302%)" stroke-opacity="1" stroke-miterlimit="10" d="M 14236.09375 11099.804688 C 14236.09375 8380.585938 16440.507812 6176.210938 19159.6875 6176.210938 C 21878.984375 6176.210938 24083.398438 8380.585938 24083.398438 11099.804688 C 24083.398438 13819.101562 21878.984375 16023.515625 19159.6875 16023.515625 C 16440.507812 16023.515625 14236.09375 13819.101562 14236.09375 11099.804688 Z M 14236.09375 11099.804688 " transform="matrix(0.1, 0, 0, -0.1, 0, 2160)"/>
<path fill="none" stroke-width="10" stroke-linecap="butt" stroke-linejoin="miter" stroke="rgb(13.719177%, 12.156677%, 12.547302%)" stroke-opacity="1" stroke-miterlimit="10" d="M 14539.882812 11099.804688 C 14539.882812 8548.398438 16608.28125 6480 19159.6875 6480 C 21711.210938 6480 23779.492188 8548.398438 23779.492188 11099.804688 C 23779.492188 13651.289062 21711.210938 15719.609375 19159.6875 15719.609375 C 16608.28125 15719.609375 14539.882812 13651.289062 14539.882812 11099.804688 Z M 14539.882812 11099.804688 " transform="matrix(0.1, 0, 0, -0.1, 0, 2160)"/>
<path fill="none" stroke-width="10" stroke-linecap="butt" stroke-linejoin="miter" stroke="rgb(13.719177%, 12.156677%, 12.547302%)" stroke-opacity="1" stroke-miterlimit="10" d="M 14843.789062 11099.804688 C 14843.789062 8716.210938 16776.09375 6783.90625 19159.6875 6783.90625 C 21543.398438 6783.90625 23475.703125 8716.210938 23475.703125 11099.804688 C 23475.703125 13483.515625 21543.398438 15415.78125 19159.6875 15415.78125 C 16776.09375 15415.78125 14843.789062 13483.515625 14843.789062 11099.804688 Z M 14843.789062 11099.804688 " transform="matrix(0.1, 0, 0, -0.1, 0, 2160)"/>
<path fill="none" stroke-width="10" stroke-linecap="butt" stroke-linejoin="miter" stroke="rgb(13.719177%, 12.156677%, 12.547302%)" stroke-opacity="1" stroke-miterlimit="10" d="M 15147.695312 11099.804688 C 15147.695312 8883.984375 16943.90625 7087.8125 19159.6875 7087.8125 C 21375.507812 7087.8125 23171.796875 8883.984375 23171.796875 11099.804688 C 23171.796875 13315.585938 21375.507812 15111.914062 19159.6875 15111.914062 C 16943.90625 15111.914062 15147.695312 13315.585938 15147.695312 11099.804688 Z M 15147.695312 11099.804688 " transform="matrix(0.1, 0, 0, -0.1, 0, 2160)"/>
<path fill="none" stroke-width="10" stroke-linecap="butt" stroke-linejoin="miter" stroke="rgb(13.719177%, 12.156677%, 12.547302%)" stroke-opacity="1" stroke-miterlimit="10" d="M 15451.484375 11099.804688 C 15451.484375 9051.796875 17111.71875 7391.601562 19159.6875 7391.601562 C 21207.695312 7391.601562 22867.890625 9051.796875 22867.890625 11099.804688 C 22867.890625 13147.8125 21207.695312 14808.085938 19159.6875 14808.085938 C 17111.71875 14808.085938 15451.484375 13147.8125 15451.484375 11099.804688 Z M 15451.484375 11099.804688 " transform="matrix(0.1, 0, 0, -0.1, 0, 2160)"/>
<path fill="none" stroke-width="10" stroke-linecap="butt" stroke-linejoin="miter" stroke="rgb(13.719177%, 12.156677%, 12.547302%)" stroke-opacity="1" stroke-miterlimit="10" d="M 15755.390625 11099.804688 C 15755.390625 9219.6875 17279.609375 7695.507812 19159.6875 7695.507812 C 21039.882812 7695.507812 22564.101562 9219.6875 22564.101562 11099.804688 C 22564.101562 12980 21039.882812 14504.21875 19159.6875 14504.21875 C 17279.609375 14504.21875 15755.390625 12980 15755.390625 11099.804688 Z M 15755.390625 11099.804688 " transform="matrix(0.1, 0, 0, -0.1, 0, 2160)"/>
<path fill="none" stroke-width="10" stroke-linecap="butt" stroke-linejoin="miter" stroke="rgb(13.719177%, 12.156677%, 12.547302%)" stroke-opacity="1" stroke-miterlimit="10" d="M 16059.21875 11099.804688 C 16059.21875 9387.5 17447.382812 7999.296875 19159.6875 7999.296875 C 20872.109375 7999.296875 22260.195312 9387.5 22260.195312 11099.804688 C 22260.195312 12812.1875 20872.109375 14200.3125 19159.6875 14200.3125 C 17447.382812 14200.3125 16059.21875 12812.1875 16059.21875 11099.804688 Z M 16059.21875 11099.804688 " transform="matrix(0.1, 0, 0, -0.1, 0, 2160)"/>
<path fill="none" stroke-width="10" stroke-linecap="butt" stroke-linejoin="miter" stroke="rgb(13.719177%, 12.156677%, 12.547302%)" stroke-opacity="1" stroke-miterlimit="10" d="M 16363.085938 11099.804688 C 16363.085938 9555.3125 17615.195312 8303.203125 19159.6875 8303.203125 C 20704.296875 8303.203125 21956.40625 9555.3125 21956.40625 11099.804688 C 21956.40625 12644.414062 20704.296875 13896.484375 19159.6875 13896.484375 C 17615.195312 13896.484375 16363.085938 12644.414062 16363.085938 11099.804688 Z M 16363.085938 11099.804688 " transform="matrix(0.1, 0, 0, -0.1, 0, 2160)"/>
<path fill="none" stroke-width="10" stroke-linecap="butt" stroke-linejoin="miter" stroke="rgb(13.719177%, 12.156677%, 12.547302%)" stroke-opacity="1" stroke-miterlimit="10" d="M 16666.914062 11099.804688 C 16666.914062 9723.085938 17783.007812 8606.992188 19159.6875 8606.992188 C 20536.484375 8606.992188 21652.5 9723.085938 21652.5 11099.804688 C 21652.5 12476.601562 20536.484375 13592.617188 19159.6875 13592.617188 C 17783.007812 13592.617188 16666.914062 12476.601562 16666.914062 11099.804688 Z M 16666.914062 11099.804688 " transform="matrix(0.1, 0, 0, -0.1, 0, 2160)"/>
<path fill-rule="nonzero" fill="rgb(74.414062%, 11.767578%, 17.651367%)" fill-opacity="1" d="M 2121.890625 1051.941406 C 2121.890625 1167.601562 2028.128906 1261.359375 1912.46875 1261.359375 C 1796.808594 1261.359375 1703.050781 1167.601562 1703.050781 1051.941406 C 1703.050781 936.28125 1796.808594 842.511719 1912.46875 842.511719 C 2028.128906 842.511719 2121.890625 936.28125 2121.890625 1051.941406 "/>
<path fill="none" stroke-width="160" stroke-linecap="butt" stroke-linejoin="miter" stroke="rgb(13.719177%, 12.156677%, 12.547302%)" stroke-opacity="1" stroke-miterlimit="10" d="M 21218.90625 11080.585938 C 21218.90625 9923.984375 20281.289062 8986.40625 19124.6875 8986.40625 C 17968.085938 8986.40625 17030.507812 9923.984375 17030.507812 11080.585938 C 17030.507812 12237.1875 17968.085938 13174.882812 19124.6875 13174.882812 C 20281.289062 13174.882812 21218.90625 12237.1875 21218.90625 11080.585938 Z M 21218.90625 11080.585938 " transform="matrix(0.1, 0, 0, -0.1, 0, 2160)"/>
<path fill-rule="nonzero" fill="rgb(100%, 100%, 100%)" fill-opacity="1" d="M 1911.648438 1251.929688 C 2021.941406 1251.929688 2111.339844 1162.53125 2111.339844 1052.238281 L 1711.960938 1052.238281 C 1711.960938 1162.53125 1801.359375 1251.929688 1911.648438 1251.929688 "/>
<path fill-rule="nonzero" fill="rgb(74.414062%, 11.767578%, 17.651367%)" fill-opacity="1" d="M 1911.648438 852.550781 C 1801.359375 852.550781 1711.960938 941.960938 1711.960938 1052.238281 L 2111.339844 1052.238281 C 2111.339844 941.960938 2021.941406 852.550781 1911.648438 852.550781 "/>
<path fill="none" stroke-width="30" stroke-linecap="butt" stroke-linejoin="miter" stroke="rgb(100%, 100%, 100%)" stroke-opacity="1" stroke-miterlimit="10" d="M 20871.992188 11077.617188 C 20871.992188 10108.007812 20086.09375 9321.992188 19116.484375 9321.992188 C 18146.914062 9321.992188 17361.015625 10108.007812 17361.015625 11077.617188 C 17361.015625 12047.1875 18146.914062 12833.085938 19116.484375 12833.085938 C 20086.09375 12833.085938 20871.992188 12047.109375 20871.992188 11077.617188 Z M 20871.992188 11077.617188 " transform="matrix(0.1, 0, 0, -0.1, 0, 2160)"/>
<path fill="none" stroke-width="160" stroke-linecap="butt" stroke-linejoin="miter" stroke="rgb(13.719177%, 12.156677%, 12.547302%)" stroke-opacity="1" stroke-miterlimit="10" d="M 19155.195312 19742.8125 C 14371.210938 19742.8125 10493.085938 15864.609375 10493.085938 11080.585938 C 10493.085938 6296.71875 14371.210938 2418.515625 19155.195312 2418.515625 C 23939.101562 2418.515625 27817.304688 6296.71875 27817.304688 11080.585938 C 27817.304688 15864.609375 23939.101562 19742.8125 19155.195312 19742.8125 Z M 19155.195312 19742.8125 " transform="matrix(0.1, 0, 0, -0.1, 0, 2160)"/>
<path fill="none" stroke-width="120" stroke-linecap="butt" stroke-linejoin="miter" stroke="rgb(17.651367%, 17.651367%, 17.651367%)" stroke-opacity="1" stroke-miterlimit="10" d="M 19155.195312 15426.796875 C 16754.882812 15426.796875 14808.984375 13480.898438 14808.984375 11080.585938 C 14808.984375 8680.3125 16754.882812 6734.492188 19155.195312 6734.492188 C 21555.507812 6734.492188 23501.289062 8680.3125 23501.289062 11080.585938 C 23501.289062 13480.898438 21555.507812 15426.796875 19155.195312 15426.796875 Z M 19155.195312 15426.796875 " transform="matrix(0.1, 0, 0, -0.1, 0, 2160)"/>
<path fill="none" stroke-width="120" stroke-linecap="butt" stroke-linejoin="miter" stroke="rgb(17.651367%, 17.651367%, 17.651367%)" stroke-opacity="1" stroke-miterlimit="10" d="M 19155.195312 14179.21875 C 17443.90625 14179.21875 16056.601562 12791.914062 16056.601562 11080.585938 C 16056.601562 9369.414062 17443.90625 7982.109375 19155.195312 7982.109375 C 20866.40625 7982.109375 22253.710938 9369.414062 22253.710938 11080.585938 C 22253.710938 12791.914062 20866.40625 14179.21875 19155.195312 14179.21875 Z M 19155.195312 14179.21875 " transform="matrix(0.1, 0, 0, -0.1, 0, 2160)"/>
<path fill="none" stroke-width="120" stroke-linecap="butt" stroke-linejoin="miter" stroke="rgb(17.651367%, 17.651367%, 17.651367%)" stroke-opacity="1" stroke-miterlimit="10" d="M 19155.195312 17598.789062 C 15555.3125 17598.789062 12636.992188 14680.507812 12636.992188 11080.703125 C 12636.992188 7480.78125 15555.3125 4562.5 19155.195312 4562.5 C 22755 4562.5 25673.28125 7480.78125 25673.28125 11080.585938 C 25673.28125 14680.507812 22755 17598.789062 19155.195312 17598.789062 Z M 19155.195312 17598.789062 " transform="matrix(0.1, 0, 0, -0.1, 0, 2160)"/>
<path fill="none" stroke-width="120" stroke-linecap="butt" stroke-linejoin="miter" stroke="rgb(17.651367%, 17.651367%, 17.651367%)" stroke-opacity="1" stroke-miterlimit="10" d="M 19155.195312 18664.804688 C 14966.484375 18664.804688 11571.015625 15269.296875 11571.015625 11080.585938 C 11571.015625 6891.992188 14966.484375 3496.484375 19155.195312 3496.484375 C 23343.789062 3496.484375 26739.296875 6891.992188 26739.296875 11080.585938 C 26739.296875 15269.296875 23343.789062 18664.804688 19155.195312 18664.804688 Z M 19155.195312 18664.804688 " transform="matrix(0.1, 0, 0, -0.1, 0, 2160)"/>
<path fill="none" stroke-width="120" stroke-linecap="butt" stroke-linejoin="miter" stroke="rgb(17.651367%, 17.651367%, 17.651367%)" stroke-opacity="1" stroke-miterlimit="10" d="M 19155.195312 16535.507812 C 16142.5 16535.507812 13700.3125 14093.28125 13700.3125 11080.585938 C 13700.3125 8068.007812 16142.5 5625.78125 19155.195312 5625.78125 C 22167.8125 5625.78125 24610 8068.007812 24610 11080.585938 C 24610 14093.28125 22167.8125 16535.507812 19155.195312 16535.507812 Z M 19155.195312 16535.507812 " transform="matrix(0.1, 0, 0, -0.1, 0, 2160)"/>
<path fill-rule="nonzero" fill="rgb(81.639099%, 82.421875%, 82.8125%)" fill-opacity="1" d="M 1929.210938 1064.359375 C 1929.210938 1077.648438 1918.441406 1088.429688 1905.148438 1088.429688 C 1891.851562 1088.429688 1881.078125 1077.648438 1881.078125 1064.359375 C 1881.078125 1051.058594 1891.851562 1040.289062 1905.148438 1040.289062 C 1918.441406 1040.289062 1929.210938 1051.058594 1929.210938 1064.359375 "/>
<path fill="none" stroke-width="120" stroke-linecap="butt" stroke-linejoin="miter" stroke="rgb(13.719177%, 12.156677%, 12.547302%)" stroke-opacity="1" stroke-miterlimit="10" d="M 19292.109375 10956.40625 C 19292.109375 10823.515625 19184.414062 10715.703125 19051.484375 10715.703125 C 18918.515625 10715.703125 18810.78125 10823.515625 18810.78125 10956.40625 C 18810.78125 11089.414062 18918.515625 11197.109375 19051.484375 11197.109375 C 19184.414062 11197.109375 19292.109375 11089.414062 19292.109375 10956.40625 Z M 19292.109375 10956.40625 " transform="matrix(0.1, 0, 0, -0.1, 0, 2160)"/>
<path fill-rule="nonzero" fill="rgb(100%, 100%, 100%)" fill-opacity="1" d="M 1836.328125 1025.699219 L 1824.921875 1025.699219 L 1806.53125 935.390625 L 1820.21875 935.390625 L 1830.5 998.429688 L 1830.75 998.429688 L 1841.148438 935.390625 L 1854.851562 935.390625 L 1836.328125 1025.699219 "/>
<path fill-rule="nonzero" fill="rgb(100%, 100%, 100%)" fill-opacity="1" d="M 1862.96875 935.390625 L 1875.910156 935.390625 L 1875.910156 1025.699219 L 1862.96875 1025.699219 L 1862.96875 935.390625 "/>
<path fill-rule="nonzero" fill="rgb(100%, 100%, 100%)" fill-opacity="1" d="M 1887.960938 935.390625 L 1900.390625 935.390625 L 1919.921875 989.808594 L 1920.171875 989.808594 L 1920.171875 935.390625 L 1933.109375 935.390625 L 1933.109375 1025.699219 L 1920.929688 1025.699219 L 1901.148438 971.410156 L 1900.890625 971.410156 L 1900.890625 1025.699219 L 1887.960938 1025.699219 L 1887.960938 935.390625 "/>
<path fill-rule="nonzero" fill="rgb(100%, 100%, 100%)" fill-opacity="1" d="M 1956.828125 987.519531 L 1939.070312 935.390625 L 1952.769531 935.390625 L 1963.171875 971.289062 L 1963.421875 971.289062 L 1973.820312 935.390625 L 1987.519531 935.390625 L 1969.761719 987.519531 L 1969.761719 1025.699219 L 1956.828125 1025.699219 L 1956.828125 987.519531 "/>
<path fill-rule="nonzero" fill="rgb(100%, 100%, 100%)" fill-opacity="1" d="M 1993.988281 935.390625 L 2006.929688 935.390625 L 2006.929688 1012.761719 L 2032.550781 1012.761719 L 2032.550781 1025.699219 L 1993.988281 1025.699219 L 1993.988281 935.390625 "/>
<path fill-rule="nonzero" fill="rgb(0%, 0%, 0%)" fill-opacity="1" d="M 1966.109375 1081.320312 L 1969.238281 1081.320312 C 1973.058594 1081.320312 1973.648438 1079.171875 1973.648438 1075.351562 C 1973.648438 1071.46875 1973 1069.371094 1968.96875 1069.371094 L 1966.109375 1069.371094 Z M 1960.621094 1064.199219 L 1969.449219 1064.199219 C 1975.96875 1064.199219 1979.140625 1068.019531 1979.140625 1075.460938 C 1979.140625 1079.871094 1977.910156 1083.101562 1974.410156 1085.039062 L 1980.328125 1102.539062 L 1974.511719 1102.539062 L 1969.398438 1086.171875 L 1966.109375 1086.171875 L 1966.109375 1102.539062 L 1960.621094 1102.539062 L 1960.621094 1064.199219 "/>
<path fill-rule="nonzero" fill="rgb(0%, 0%, 0%)" fill-opacity="1" d="M 1983.558594 1064.199219 L 1999.921875 1064.199219 L 1999.921875 1069.371094 L 1989.050781 1069.371094 L 1989.050781 1080.621094 L 1998.519531 1080.621094 L 1998.519531 1085.789062 L 1989.050781 1085.789062 L 1989.050781 1097.050781 L 1999.921875 1097.050781 L 1999.921875 1102.539062 L 1983.558594 1102.539062 L 1983.558594 1064.199219 "/>
<path fill-rule="nonzero" fill="rgb(0%, 0%, 0%)" fill-opacity="1" d="M 2020.921875 1093.980469 C 2020.921875 1098.71875 2017.101562 1102.859375 2012.199219 1102.859375 C 2008 1102.859375 2003.148438 1100.820312 2003.148438 1093.820312 L 2003.148438 1072.710938 C 2003.148438 1067.699219 2006.761719 1063.878906 2012.089844 1063.878906 C 2017.148438 1063.878906 2020.921875 1067.699219 2020.921875 1073.03125 L 2020.921875 1075.191406 L 2015.429688 1075.191406 L 2015.429688 1073.359375 C 2015.429688 1071.199219 2014.140625 1069.371094 2012.039062 1069.371094 C 2009.289062 1069.371094 2008.640625 1071.261719 2008.640625 1073.839844 L 2008.640625 1093.441406 C 2008.640625 1095.648438 2009.511719 1097.371094 2011.980469 1097.371094 C 2013.488281 1097.371094 2015.429688 1096.511719 2015.429688 1093.488281 L 2015.429688 1091.609375 L 2020.921875 1091.609375 L 2020.921875 1093.980469 "/>
<path fill-rule="nonzero" fill="rgb(0%, 0%, 0%)" fill-opacity="1" d="M 2030.558594 1093.488281 C 2030.558594 1096.128906 2032.28125 1097.371094 2034.269531 1097.371094 C 2036.261719 1097.371094 2037.988281 1096.128906 2037.988281 1093.488281 L 2037.988281 1073.25 C 2037.988281 1070.609375 2036.261719 1069.371094 2034.269531 1069.371094 C 2032.28125 1069.371094 2030.558594 1070.609375 2030.558594 1073.25 Z M 2025.070312 1073.25 C 2025.070312 1067 2029.800781 1063.878906 2034.269531 1063.878906 C 2038.738281 1063.878906 2043.480469 1067 2043.480469 1073.25 L 2043.480469 1093.488281 C 2043.480469 1099.738281 2038.738281 1102.859375 2034.269531 1102.859375 C 2029.800781 1102.859375 2025.070312 1099.738281 2025.070312 1093.488281 L 2025.070312 1073.25 "/>
<path fill-rule="nonzero" fill="rgb(0%, 0%, 0%)" fill-opacity="1" d="M 2053.820312 1081.320312 L 2056.941406 1081.320312 C 2060.761719 1081.320312 2061.351562 1079.171875 2061.351562 1075.351562 C 2061.351562 1071.46875 2060.710938 1069.371094 2056.671875 1069.371094 L 2053.820312 1069.371094 Z M 2048.320312 1064.199219 L 2057.148438 1064.199219 C 2063.671875 1064.199219 2066.851562 1068.019531 2066.851562 1075.460938 C 2066.851562 1079.871094 2065.609375 1083.101562 2062.109375 1085.039062 L 2068.03125 1102.539062 L 2062.21875 1102.539062 L 2057.101562 1086.171875 L 2053.820312 1086.171875 L 2053.820312 1102.539062 L 2048.320312 1102.539062 L 2048.320312 1064.199219 "/>
<path fill-rule="nonzero" fill="rgb(0%, 0%, 0%)" fill-opacity="1" d="M 2076.75 1097.371094 L 2079.28125 1097.371094 C 2082.351562 1097.371094 2083.53125 1095.859375 2083.53125 1092.578125 L 2083.53125 1074.109375 C 2083.53125 1071.089844 2082.511719 1069.371094 2079.28125 1069.371094 L 2076.75 1069.371094 Z M 2071.261719 1064.199219 L 2079.390625 1064.199219 C 2085.578125 1064.199219 2089.03125 1067.921875 2089.03125 1074.109375 L 2089.03125 1092.039062 C 2089.03125 1099.148438 2085.371094 1102.539062 2078.898438 1102.539062 L 2071.261719 1102.539062 L 2071.261719 1064.199219 "/>
</svg>
